<?xml version="1.0" standalone="no"?><!DOCTYPE svg PUBLIC "-//W3C//DTD SVG 1.1//EN" "http://www.w3.org/Graphics/SVG/1.1/DTD/svg11.dtd"><svg class="icon" width="200px" height="200.00px" viewBox="0 0 1024 1024" version="1.1" xmlns="http://www.w3.org/2000/svg"><path fill="#d81e06" d="M896 320h-134.8c-21.6-37.4-51.4-69.6-87.4-94L752 147.6 684.4 80l-104.2 104.2C558 178.8 535.6 176 512 176s-46 2.8-67.6 8.2L339.6 80 272 147.6l77.8 78.2c-35.6 24.4-65.2 56.6-86.8 94H128v96h100.4c-2.4 15.8-4.4 31.6-4.4 48v48H128v96h96v48c0 16.4 2 32.2 4.4 48H128v96h134.8c50 86 142.6 144 249.2 144s199.2-58 249.2-144H896v-96h-100.4c2.4-15.8 4.4-31.6 4.4-48v-48h96v-96h-96v-48c0-16.4-2-32.2-4.4-48H896V320z" /></svg>